<svg width="43" height="77" viewBox="0 0 43 77" fill="none" xmlns="http://www.w3.org/2000/svg">
<path d="M27.4318 32.1818C27.2614 30.7424 26.5701 29.625 25.358 28.8295C24.1458 28.0341 22.6591 27.6364 20.8977 27.6364C19.6098 27.6364 18.483 27.8447 17.517 28.2614C16.5606 28.678 15.8125 29.2509 15.2727 29.9801C14.7424 30.7093 14.4773 31.5379 14.4773 32.4659C14.4773 33.2424 14.6619 33.91 15.0312 34.4688C15.41 35.018 15.893 35.4773 16.4801 35.8466C17.0672 36.2064 17.6828 36.5047 18.3267 36.7415C18.9706 36.9687 19.5625 37.1534 20.1023 37.2955L23.0568 38.0909C23.8144 38.2898 24.6572 38.5644 25.5852 38.9148C26.5227 39.2652 27.4176 39.7434 28.2699 40.3494C29.1316 40.946 29.8419 41.7131 30.4006 42.6506C30.9593 43.5881 31.2386 44.7386 31.2386 46.1023C31.2386 47.6742 30.8267 49.0947 30.0028 50.3636C29.1884 51.6326 27.9953 52.6411 26.4233 53.3892C24.8608 54.1373 22.9621 54.5114 20.7273 54.5114C18.6439 54.5114 16.84 54.1752 15.3153 53.5028C13.8002 52.8305 12.607 51.893 11.7358 50.6903C10.8741 49.4877 10.3864 48.0909 10.2727 46.5H13.9091C14.0038 47.5985 14.3731 48.5076 15.017 49.2273C15.6705 49.9375 16.4943 50.4678 17.4886 50.8182C18.4924 51.1591 19.572 51.3295 20.7273 51.3295C22.072 51.3295 23.2794 51.1117 24.3494 50.6761C25.4195 50.2311 26.267 49.6155 26.892 48.8295C27.517 48.0341 27.8295 47.1061 27.8295 46.0455C27.8295 45.0795 27.5597 44.2936 27.0199 43.6875C26.4801 43.0814 25.7699 42.589 24.8892 42.2102C24.0085 41.8314 23.0568 41.5 22.0341 41.2159L18.4545 40.1932C16.1818 39.5398 14.3826 38.607 13.0568 37.3949C11.7311 36.1828 11.0682 34.5966 11.0682 32.6364C11.0682 31.0076 11.5085 29.5871 12.3892 28.375C13.2794 27.1534 14.4725 26.2064 15.9688 25.5341C17.4744 24.8523 19.1553 24.5114 21.0114 24.5114C22.8864 24.5114 24.553 24.8475 26.0114 25.5199C27.4697 26.1828 28.625 27.0919 29.4773 28.2472C30.339 29.4025 30.7936 30.714 30.8409 32.1818H27.4318Z" fill="#939393"/>
<path d="M1.63636 15.4545H8.09091L21 37.1818H21.5455L34.4545 15.4545H40.9091L24.0909 42.8182V62H18.4545V42.8182L1.63636 15.4545Z" fill="white"/>
</svg>
